<svg version="1.2" xmlns="http://www.w3.org/2000/svg" viewBox="0 0 1246 763" width="1246" height="763">
	<title>Color logo - no background-svg</title>
	<style>
		.s0 { fill: #f6f6f6 } 
	</style>
	<g id="Layer">
		<g id="SvgjsG1148">
			<path id="Layer" fill-rule="evenodd" class="s0" d="m245.5 433.9v-14.8c0-2.4 1.9-4.3 4.3-4.3h54.4c2.3 0 4.2 1.9 4.2 4.3v30c0 70.2-37.6 99.7-108.7 99.7-66.3 0-109.7-26.2-109.7-99.7v-125.4c0-70.6 38.6-98.8 109.7-98.8 67.2 0 108.7 25.8 108.7 98.8v10c0 2.4-1.9 4.3-4.2 4.3h-54.9c-2.4 0-4.3-1.9-4.3-4.3v-7.6c0-26.3-19.6-37.3-42.9-37.3h-5.8c-15.7 0-26.2 4.3-33.3 13.9-6.7 9-9.1 21-9.1 36.7v94.5c0 41.5 23.4 50.5 42.4 50.5h5.8c30 0 42.4-20 43.4-50.5zm-46.8-179.4c-51 0-80.6 18.1-80.6 76.3v115c0 52.9 27.2 72.5 80.6 72.5 50.1 0 80.2-18.1 80.2-73 0-3.8-5.8-3.8-5.8 0 0 48.2-26.2 67.7-74.4 67.7-46.7 0-75.3-16.2-75.3-67.2v-115c0-49.6 23.3-71 75.3-71 67.8 0 70.2 42.9 70.2 47.7 0 4.2 6.6 4.7 6.6 0 0-39.6-40-53-76.8-53zm302.8-29.6c41 0 69.7 9.1 87.8 28.6 14.3 15.8 21 38.2 21 70.2v125.4c0 32.9-6.7 55.8-21 71.1-18.6 19.1-46.8 28.6-87.8 28.6-42.4 0-70.1-9.5-88.2-28.6-13.9-15.3-21.5-38.2-21.5-71.1v-125.4c0-32 7.6-54.4 21.5-70.6 18.6-19.1 46.7-28.2 88.2-28.2zm-79.7 102.1v118.3c0 22.4 5.8 41 19.1 54.9 12.4 12.4 31.5 19.1 54.9 19.1h12.4c44.8 0 73.9-28.7 73.9-74v-118.3c0-48.6-25.7-74.9-73.9-74.9h-12.4c-48.7 0-74 26.3-74 74.9zm86.4 186h-12.4c-22.4 0-39.1-5.7-51.1-17.6-11.9-11.9-18.1-28.6-18.1-50.1v-118.3c0-45.3 24.3-69.2 69.2-69.2h12.4c45.3 0 67.7 23.4 67.7 69.2v118.3c0 20-6.2 38.2-19.1 50.6-12.4 10.5-29.1 17.1-48.6 17.1zm38.6-78.2v-95.4c0-42-22.4-50.6-42.9-50.6h-5.7c-30.6 0-42.5 19.6-42.5 50.6v95.4c0 42 22.4 51.1 42.5 51.1h5.7c30.5 0 42.4-20.6 42.9-51.1zm334.8-15.2c-6.7 13.8-16.3 24.3-29.6 30.5l40.1 88.2c1.4 2.9-0.5 5.8-3.4 5.8h-58.7c-1.9 0-2.8-1-3.3-2.4l-37.2-81.1h-24.3v79.2c0 2.3-1.9 4.3-4.3 4.3h-54.9c-1.9 0-3.3-2-3.3-4.3v-306.3c0-2.4 1.4-4.3 3.3-4.3h99.2c53 0 84.9 30.1 84.9 85.9v60.1c0 16.7-2.8 32.4-8.5 44.4zm-144.1 95.4v-81.6h68.7l40.1 82.5c0.9 2.4 6.6 1.4 5.2-2.9l-40.1-81c37.2-5.3 50.1-24.8 50.1-60.1v-59.7c0-52.4-47.7-56.7-62.5-56.7h-64.4c-0.9 0-2.8 1.4-2.8 2.8v256.7c0 3.3 5.7 3.3 5.7 0zm118.3-202.8v59.7c0 48.6-31 55.3-61.1 55.3h-57.2v-165.5h61.5c51.6 0 56.8 34.8 56.8 50.5zm-28.1 48.2v-31c0-33.4-12.4-36.7-48.7-36.7h-13.8v105.4h13.8c30.1 0 47.7-0.5 48.7-37.7zm159.6 183.7c-2.4 0-3.8-2-3.8-4.3v-306.3c0-2.4 1.4-4.3 3.8-4.3h162.2c2.4 0 4.3 1.9 4.3 4.3v51.1c0 2.3-1.9 4.2-4.3 4.2h-103v64.9h80.1c2.4 0 3.8 1.9 3.8 4.3v52c0 2.4-1.4 4.3-3.8 4.3h-80.1v70.1h103c2.4 0 4.3 1.9 4.3 4.3v51.1c0 2.3-1.9 4.3-4.3 4.3zm23.9-284.8v253.7c0 2.9 1.9 3.9 3.8 3.9h109.7c4.3 0 3.3-5.8 0-5.8h-107.3v-124.5h87.7c2.9 0 2.9-6.6 0-6.6h-87.7v-118.3h107.3c3.3 0 4.3-6.2 0-6.2h-109.7c-1.9 0-3.8 1.4-3.8 3.8z"/>
		</g>
		<g id="SvgjsG1149">
			<g id="Layer">
				<path id="Layer" fill-rule="evenodd" class="s0" d="m1595.8 103c6.3 0 11.8-3.2 17-6.2 6.7-3.9 13.2-7.6 21.8-6.6 47.7 5.4 81.1 21.1 103.2 43.7 25.3 25.7 35.7 59.9 35.8 97.4q0.4 0.3 0.7 0.7c28.7 11.8 49.2 29.6 63 51.6 15.9 25.5 22.7 56.4 22.7 89.6 0 11-0.8 21.8-2.3 32.2q0 0.5 0 0.9c0 0.9-0.2 1.7-0.6 2.4-3.3 19.7-9.8 38.1-19.9 54.3-13.9 22.1-34.7 40-63.8 51.7q0.1 1.6 0.1 3.2 0.1 4 0.1 7c0 36.9-8.3 70.8-29.6 97.2-21.4 26.3-55.5 44.7-106.9 50.7-8.9 1.1-15.9-3.7-23.2-8.6-5.6-3.8-11.5-7.7-17.6-7.7-6.3 0-12.6 4.2-18.5 8.1-6.9 4.7-13.4 9.1-21.1 8.2-47.7-5.7-81.1-22.1-103.1-45.6-25.4-27-35.7-62.9-35.7-102.3q0-3 0.2-7 0-0.8 0-1.6-0.1 0-0.1-0.1-0.9-0.9-1.2-2c-28.4-11.8-48.7-29.5-62.4-51.2-16-25.6-22.8-56.5-22.8-89.8 0-33.2 6.7-64.1 22.7-89.6 13.9-22.2 34.5-40.1 63.6-51.9 0.1-37.7 10.5-72.1 35.9-97.9 22.2-22.5 55.7-38.3 103.5-43.7 8.4-0.9 14.9 2.8 21.6 6.7 5.3 3 10.7 6.2 16.9 6.2zm-92.6 323.1c2-2 5.2-1.9 7.2 0.1 2 2 1.9 5.3-0.1 7.2l-42.5 41.3q-0.3 0.6-0.8 1l-38.5 37.4q-0.1 2.7-0.2 5.1-0.1 2.8-0.1 6.7c0 36.9 9.5 70.5 32.8 95.3 9.3 9.8 20.8 18.4 34.7 25.2l36.2-35.5c2-2 5.3-2 7.3 0 1.9 2 1.9 5.3-0.1 7.3l-33.3 32.7c14.8 6 32.1 10.3 52.1 12.7 3.9 0.5 8.9-2.9 14.3-6.5 5.6-3.8 11.5-7.8 18.5-9.3v-165.5l-54.7 56.1c-0.5 0.5-0.6 0.6-0.6 0.6q0.8 0.8 1.9 1.9c0.8 0.7 1.6 1.5 2.6 2.5l26.2 25.2c2 1.9 2.1 5.2 0.1 7.2-1.9 2-5.2 2.1-7.2 0.2l-26.2-25.2-0.1-0.1c-0.9-0.9-1.7-1.7-2.5-2.4-0.8-0.8-1.5-1.5-2.1-2.1v-0.1l-29.4 29.3c-2 2-5.3 2-7.3 0-2-2-2-5.2 0-7.2l37.7-37.5q0.3-0.3 0.7-0.6l60.9-62.4v-82.9l-43.9 41.9c-2 2-5.3 1.9-7.2-0.2-2-2-1.9-5.3 0.2-7.2l49.3-47.1-29.8-28.9c-2-2-2.1-5.2-0.1-7.2 2-2 5.2-2.1 7.2-0.1l32.1 31 24.9-0.1c0.9-3 2.5-5.7 4.7-7.8 3.4-3.4 8.1-5.6 13.4-5.6 5.2 0 9.9 2.2 13.3 5.6 3.4 3.4 5.5 8.1 5.5 13.3 0 5.2-2.1 9.9-5.5 13.4-3.4 3.4-8.1 5.5-13.3 5.5-5.3 0-10-2.1-13.4-5.5-2.3-2.4-4.1-5.3-4.9-8.7l-22.3 0.1v130.2l74.1 0.1c0.8-3.1 2.5-5.9 4.8-8.2 3.4-3.4 8.1-5.5 13.3-5.5 5.2 0 10 2.1 13.4 5.5 3.4 3.4 5.5 8.1 5.5 13.3 0 5.3-2.1 10-5.5 13.4-3.4 3.4-8.2 5.5-13.4 5.5-5.2 0-9.9-2.1-13.3-5.5-2.3-2.3-4-5.1-4.8-8.3l-74.1-0.1v130c7.1 1.3 13 5.3 18.8 9.2 5.6 3.8 11.1 7.5 16.3 6.9q7.8-1 15.1-2.3v-45.7c-3.1-0.9-5.9-2.6-8.1-4.8-3.4-3.4-5.5-8.1-5.5-13.3 0-5.3 2.1-10 5.5-13.4 3.4-3.4 8.1-5.5 13.4-5.5 5.2 0 9.9 2.1 13.3 5.5 3.4 3.4 5.5 8.1 5.5 13.4 0 5.2-2.1 9.9-5.5 13.3-2.3 2.3-5.1 4-8.3 4.9v43.5c34.5-7.9 58.6-22.9 74.6-42.7 19.7-24.3 27.4-56 27.4-90.7q0-3.9-0.1-6.7-0.1-2-0.2-4.3l-61.3-64.2c-2.5 1.3-5.4 2-8.4 2-5.2 0-9.9-2.1-13.3-5.5-3.4-3.4-5.5-8.1-5.5-13.4 0-5.2 2.1-9.9 5.5-13.3 3.4-3.4 8.1-5.5 13.3-5.5 5.2 0 9.9 2.1 13.4 5.5 3.4 3.4 5.5 8.1 5.5 13.3 0 3.7-1.1 7.2-2.9 10.1l59.7 62.5c27.3-10.9 46.6-27.4 59.4-47.9 8.7-13.8 14.4-29.3 17.7-46.1l-52.5-0.3c-0.9 3.3-2.6 6.2-4.9 8.5-3.5 3.5-8.2 5.6-13.4 5.6-5.2 0-9.9-2.1-13.3-5.6-3.4-3.4-5.5-8.1-5.5-13.3 0-5.2 2.1-9.9 5.5-13.3 3.4-3.5 8.1-5.6 13.3-5.6 5.2 0 9.9 2.1 13.4 5.6 2.1 2.1 3.8 4.8 4.7 7.8l54.4 0.3c1.3-9 1.8-18.3 1.8-27.9 0-17.7-1.9-34.6-6.3-50.2h-78.9c-0.9 3.1-2.5 5.9-4.8 8.1-3.4 3.4-8.1 5.5-13.3 5.5-5.2 0-9.9-2.1-13.3-5.5-3.5-3.4-5.6-8.1-5.6-13.4 0-5.2 2.1-9.9 5.6-13.3 3.4-3.4 8.1-5.5 13.3-5.5 5.2 0 9.9 2.1 13.3 5.5 2.3 2.3 4 5.1 4.9 8.3h75.5c-3-8.3-6.8-16.3-11.5-23.7-13-20.8-32.7-37.7-60.8-48.6h-81.3c-0.9 3.1-2.6 5.9-4.8 8.1-3.4 3.4-8.1 5.5-13.3 5.5-5.2 0-10-2.1-13.4-5.5-3.4-3.4-5.5-8.1-5.5-13.3 0-5.2 2.1-10 5.5-13.4 3.4-3.4 8.2-5.5 13.4-5.5 5.2 0 9.9 2.1 13.3 5.5 2.3 2.3 4 5.2 4.9 8.4h76.8c-0.4-34.6-9.9-65.9-32.9-89.2-13.9-14.1-32.7-25.4-57.4-32.8v42.4c3.1 0.9 5.8 2.6 8.1 4.8 3.4 3.4 5.5 8.2 5.5 13.4 0 5.2-2.1 9.9-5.5 13.3-3.5 3.4-8.2 5.5-13.4 5.5-5.2 0-9.9-2.1-13.3-5.5-3.4-3.4-5.5-8.1-5.5-13.3 0-5.2 2.1-10 5.5-13.4 2.3-2.2 5.1-3.9 8.3-4.8v-45.2q-13.6-3.3-29.3-5.1c-5.3-0.6-10.3 2.3-15.6 5.4-5.1 2.9-10.4 6-17 7.1v127l58 60.7c2.8-1.6 6-2.5 9.5-2.5 5.2 0 9.9 2.1 13.3 5.5 3.4 3.4 5.5 8.1 5.5 13.4 0 5.2-2.1 9.9-5.5 13.3-3.4 3.4-8.1 5.5-13.3 5.5-5.2 0-10-2.1-13.4-5.5-3.4-3.4-5.5-8.1-5.5-13.3 0-3.3 0.8-6.4 2.3-9l-55.9-58.6-65.1 63.9c-2 2-5.2 1.9-7.2-0.1-2-2-1.9-5.2 0.1-7.2l67-65.8v-127.3c-6.5-1.1-11.8-4.2-16.9-7.1-5.2-3.1-10.3-6-15.4-5.4q-12.4 1.4-23.4 3.7v83.1l29.4 36c1.8 2.2 1.5 5.4-0.7 7.2-2.2 1.8-5.4 1.4-7.2-0.7l-26.6-32.5-26.5 32.5c-1.8 2.1-5.1 2.5-7.2 0.7-2.2-1.8-2.6-5-0.8-7.2l29.4-36v-80.7c-27.8 7.3-48.7 19.3-63.7 34.5-23.4 23.8-32.9 55.8-32.9 91.1 0 2.2 0 0.4 0 1.6q0 0.2 0 0.5l36.1 35.1c2 1.9 2 5.2 0.1 7.2-2 2-5.2 2.1-7.3 0.1l-36-35c-26.6 10.9-45.5 27.3-58.1 47.5-14.9 23.7-21.2 52.7-21.2 84.2 0 15 1.5 29.5 4.6 43.2l128-125.8c2-2 5.2-1.9 7.2 0.1 2 2 2 5.2-0.1 7.2l-50.1 49.3 39.9 38.8c2 1.9 2 5.2 0.1 7.2-2 2-5.3 2.1-7.3 0.1l-40-38.9-74.6 73.3c3.3 10.6 7.8 20.6 13.6 29.8 12.7 20.3 31.8 36.8 58.8 47.7l34.4-33.4-39.5-38.4c-2-1.9-2-5.2-0.1-7.2 2-2 5.2-2.1 7.3-0.1l39.6 38.4zm138.3-63.2c-2.4 0-4.6 0.9-6.1 2.5-1.6 1.5-2.6 3.7-2.6 6.1 0 2.3 1 4.5 2.6 6.1 1.5 1.5 3.7 2.5 6.1 2.5 2.3 0 4.5-1 6-2.5 1.6-1.6 2.6-3.8 2.6-6.1 0-2.4-1-4.6-2.6-6.1-1.5-1.6-3.7-2.5-6-2.5zm140 37.4c-1.5-1.6-3.7-2.6-6.1-2.6-2.4 0-4.5 1-6.1 2.6-1.5 1.5-2.5 3.7-2.5 6.1 0 2.3 1 4.5 2.5 6 1.6 1.6 3.7 2.6 6.1 2.6 2.4 0 4.6-1 6.1-2.6 1.6-1.5 2.5-3.7 2.5-6 0-2.4-0.9-4.6-2.5-6.1zm-119.1 202.4c1.6-1.6 2.6-3.7 2.6-6.1 0-2.4-1-4.5-2.6-6.1-1.5-1.5-3.7-2.5-6-2.5-2.4 0-4.6 1-6.1 2.5-1.6 1.6-2.6 3.7-2.6 6.1 0 2.4 1 4.5 2.6 6.1 1.5 1.6 3.7 2.5 6.1 2.5 2.3 0 4.5-0.9 6-2.5zm24.6-84.9c1.6 1.5 3.8 2.5 6.1 2.5 2.4 0 4.6-1 6.1-2.5 1.6-1.6 2.5-3.7 2.5-6.1 0-2.4-0.9-4.5-2.5-6.1-1.5-1.5-3.7-2.5-6.1-2.5-2.3 0-4.5 1-6.1 2.5-1.5 1.6-2.5 3.7-2.5 6.1 0 2.4 1 4.5 2.5 6.1zm65.5-206.1c-1.6-1.5-3.7-2.5-6.1-2.5-2.4 0-4.5 1-6.1 2.5-1.6 1.6-2.5 3.7-2.5 6.1 0 2.4 0.9 4.5 2.5 6.1 1.6 1.5 3.7 2.5 6.1 2.5 2.4 0 4.5-1 6.1-2.5 1.5-1.6 2.5-3.7 2.5-6.1 0-2.4-1-4.5-2.5-6.1zm-53 115.1c-1.5-1.5-3.7-2.5-6.1-2.5-2.4 0-4.5 1-6.1 2.5-1.5 1.6-2.5 3.7-2.5 6.1 0 2.4 1 4.5 2.5 6.1 1.6 1.5 3.7 2.5 6.1 2.5 2.4 0 4.6-1 6.1-2.5 1.6-1.6 2.5-3.7 2.5-6.1 0-2.4-0.9-4.5-2.5-6.1zm-25-116c-1.6-1.5-3.8-2.5-6.1-2.5-2.4 0-4.6 1-6.1 2.5-1.6 1.6-2.5 3.7-2.5 6.1 0 2.4 0.9 4.5 2.5 6.1 1.5 1.6 3.7 2.5 6.1 2.5 2.3 0 4.5-0.9 6.1-2.5 1.5-1.6 2.5-3.7 2.5-6.1 0-2.4-1-4.5-2.5-6.1zm-12.8-148.1c-1.5 1.6-2.5 3.8-2.5 6.1 0 2.4 1 4.6 2.5 6.1 1.6 1.6 3.7 2.5 6.1 2.5 2.4 0 4.6-0.9 6.1-2.5 1.6-1.5 2.5-3.7 2.5-6.1 0-2.3-0.9-4.5-2.5-6.1-1.5-1.5-3.7-2.5-6.1-2.5-2.4 0-4.5 1-6.1 2.5zm12.8 66.4c-1.6-1.5-3.8-2.5-6.1-2.5-2.4 0-4.6 1-6.1 2.5-1.6 1.6-2.5 3.8-2.5 6.1 0 2.4 0.9 4.6 2.5 6.1 1.5 1.6 3.7 2.5 6.1 2.5 2.3 0 4.5-0.9 6.1-2.5 1.5-1.5 2.5-3.7 2.5-6.1 0-2.3-1-4.5-2.5-6.1z"/>
			</g>
		</g>
		<g id="SvgjsG1150">
			<path id="Layer" fill-rule="evenodd" class="s0" d="m2114.4 288.8h-67.8c-2.3 0-4.2-1.9-4.2-4.2v-51.1c0-2.4 1.9-4.3 4.2-4.3h199c2.3 0 4.3 1.9 4.3 4.3v51.1c0 2.3-2 4.2-4.3 4.2h-67.8v251c0 2.3-1.9 4.3-4.3 4.3h-54.8c-2.4 0-4.3-2-4.3-4.3zm102.1-33.4h-144.1c-3.3 0-3.3 6.2 0 6.2h70.6v252.8c0 3.3 6.2 3.3 6.2 0v-252.8h67.3c4.7 0 4.3-6.2 0-6.2zm112.9 288.6c-2.4 0-3.8-1.9-3.8-4.3v-306.3c0-2.4 1.4-4.3 3.8-4.3h162.2c2.4 0 4.3 1.9 4.3 4.3v51.1c0 2.4-1.9 4.3-4.3 4.3h-103.1v64.8h80.2c2.4 0 3.8 1.9 3.8 4.3v52c0 2.4-1.4 4.3-3.8 4.3h-80.2v70.1h103.1c2.4 0 4.3 1.9 4.3 4.3v51.1c0 2.4-1.9 4.3-4.3 4.3zm23.8-284.8v253.8c0 2.8 1.9 3.8 3.8 3.8h109.8c4.2 0 3.3-5.7 0-5.7h-107.4v-124.5h87.8c2.9 0 2.9-6.7 0-6.7h-87.8v-118.3h107.4c3.3 0 4.2-6.2 0-6.2h-109.8c-1.9 0-3.8 1.4-3.8 3.8zm381.5 174.6v-14.8c0-2.4 1.9-4.3 4.3-4.3h54.4c2.4 0 4.3 1.9 4.3 4.3v30c0 70.2-37.7 99.7-108.8 99.7-66.3 0-109.7-26.2-109.7-99.7v-125.4c0-70.6 38.6-98.8 109.7-98.8 67.3 0 108.8 25.8 108.8 98.8v10c0 2.4-1.9 4.3-4.3 4.3h-54.9c-2.4 0-4.3-1.9-4.3-4.3v-7.6c0-26.3-19.5-37.2-42.9-37.2h-5.7c-15.8 0-26.3 4.3-33.4 13.8-6.7 9.1-9.1 21-9.1 36.7v94.5c0 41.5 23.4 50.5 42.5 50.5h5.7c30.1 0 42.5-20 43.4-50.5zm-46.7-179.4c-51.1 0-80.7 18.1-80.7 76.3v115c0 53 27.2 72.5 80.7 72.5 50 0 80.1-18.1 80.1-73 0-3.8-5.7-3.8-5.7 0 0 48.2-26.3 67.8-74.4 67.8-46.8 0-75.4-16.3-75.4-67.3v-115c0-49.6 23.4-71 75.4-71 67.7 0 70.1 42.9 70.1 47.7 0 4.3 6.7 4.7 6.7 0 0-39.6-40.1-53-76.8-53zm339 98.8v-119.8c0-2.4 1.9-4.3 4.3-4.3h54.4c2.4 0 4.3 1.9 4.3 4.3v306.3c0 2.4-1.9 4.3-4.3 4.3h-54.4c-2.4 0-4.3-1.9-4.3-4.3v-126.9h-77.3v126.9c0 2.4-1.9 4.3-4.3 4.3h-54.4c-2.3 0-3.8-1.9-3.8-4.3v-306.3c0-2.4 1.5-4.3 3.8-4.3h54.4c2.4 0 4.3 1.9 4.3 4.3v119.8zm-112.1 161.2c0 3.8 6.2 3.3 6.2 0v-127.8h134.1v127.8c0 3.3 5.2 3.8 5.2 0v-256.6c0-3.4-5.2-4.3-5.2 0v122.1h-134.1v-122.1c0-3.4-6.2-3.4-6.2 0z"/>
		</g>
	</g>
</svg>